<?xml version="1.0" encoding="utf-8"?>
<!-- Generator: Adobe Illustrator 24.0.1, SVG Export Plug-In . SVG Version: 6.00 Build 0)  -->
<svg version="1.1" id="Capa_1" xmlns="http://www.w3.org/2000/svg" xmlns:xlink="http://www.w3.org/1999/xlink" x="0px" y="0px"
	 viewBox="0 0 117 79" style="enable-background:new 0 0 117 79;" xml:space="preserve">
<style type="text/css">
	.st0{fill:#FF5152;}
</style>
<g id="Capa_2_1_">
	<g id="Capa_1-2">
		<g>
			<g>
				<path class="st0" d="M12.99,69.32c-0.54-1.36-1.08-2.66-1.62-3.9c-0.54-1.23-1.09-2.45-1.66-3.65H6.78
					c-0.57,1.2-1.12,2.42-1.66,3.66c-0.54,1.23-1.07,2.53-1.62,3.9c-0.54,1.36-1.1,2.81-1.67,4.34s-1.17,3.19-1.8,5h3.29
					c0.22-0.64,0.45-1.28,0.68-1.93s0.46-1.3,0.68-1.97h7c0.22,0.67,0.46,1.32,0.69,1.96c0.24,0.64,0.47,1.28,0.69,1.94h3.41
					c-0.63-1.8-1.24-3.47-1.82-5C14.09,72.13,13.53,70.69,12.99,69.32z M5.4,72.29c0.52-1.45,1.02-2.8,1.5-4.03
					c0.48-1.24,0.91-2.29,1.28-3.15c0.36,0.83,0.78,1.87,1.27,3.13c0.49,1.25,0.99,2.61,1.51,4.06H5.4z"/>
				<path class="st0" d="M26.06,76.26c-0.29,0.06-0.59,0.1-0.88,0.12c-0.39,0.03-0.77,0.05-1.13,0.05c-0.98,0-1.68-0.29-2.08-0.88
					c-0.4-0.59-0.6-1.56-0.59-2.93v-6.69h-2.99v7.16c-0.01,0.8,0.08,1.6,0.27,2.38c0.16,0.68,0.46,1.32,0.89,1.87
					c0.44,0.54,1.02,0.96,1.67,1.22C21.91,78.85,22.77,79,23.8,79c1.01,0.01,2.02-0.07,3.01-0.23c0.91-0.16,1.66-0.31,2.23-0.45
					V65.93h-2.99L26.06,76.26z"/>
				<path class="st0" d="M49.65,67.35c-0.39-0.53-0.91-0.94-1.52-1.2c-0.64-0.28-1.46-0.43-2.46-0.43c-0.39,0-0.78,0.04-1.16,0.12
					c-0.37,0.08-0.73,0.18-1.09,0.31c-0.32,0.11-0.63,0.25-0.93,0.4c-0.24,0.12-0.47,0.26-0.68,0.42c-0.4-0.4-0.88-0.7-1.41-0.91
					c-0.56-0.23-1.28-0.34-2.16-0.34c-0.98,0-1.96,0.07-2.92,0.22c-0.75,0.11-1.5,0.27-2.24,0.46v12.38h2.99V68.47
					c0.19-0.03,0.48-0.07,0.87-0.12c0.35-0.05,0.71-0.07,1.07-0.07c0.9,0,1.52,0.3,1.85,0.89c0.33,0.59,0.5,1.56,0.5,2.9v6.73h2.99
					v-7.07c0-0.49-0.02-0.98-0.07-1.47c-0.04-0.44-0.13-0.88-0.27-1.3c0.3-0.19,0.61-0.34,0.94-0.45c0.43-0.16,0.88-0.23,1.33-0.23
					c0.92,0,1.54,0.3,1.86,0.89c0.32,0.59,0.48,1.56,0.48,2.9v6.73h2.99v-7.19c0.01-0.8-0.06-1.6-0.21-2.38
					C50.29,68.55,50.03,67.91,49.65,67.35z"/>
				<path class="st0" d="M59.82,65.57c-0.75,0-1.5,0.15-2.2,0.43c-0.72,0.29-1.37,0.72-1.91,1.27c-0.58,0.61-1.04,1.33-1.33,2.11
					c-0.35,0.95-0.52,1.95-0.5,2.96c-0.01,0.9,0.12,1.79,0.39,2.65c0.24,0.78,0.65,1.5,1.2,2.11c0.57,0.62,1.27,1.09,2.05,1.39
					c0.83,0.34,1.81,0.5,2.93,0.5c0.43,0,0.87-0.02,1.3-0.07c0.42-0.05,0.82-0.11,1.18-0.18c0.33-0.06,0.66-0.15,0.98-0.25
					c0.23-0.07,0.45-0.16,0.67-0.26l-0.39-2.42c-0.46,0.18-0.93,0.32-1.41,0.42c-0.65,0.14-1.31,0.2-1.97,0.19
					c-1.22,0-2.15-0.28-2.8-0.84c-0.64-0.56-1.01-1.36-1.09-2.38h8.43c0.01-0.16,0.03-0.35,0.04-0.55c0.01-0.21,0.01-0.39,0.01-0.55
					c0-2.16-0.49-3.79-1.48-4.89S61.58,65.57,59.82,65.57z M56.96,71.12c0.05-0.38,0.14-0.75,0.27-1.1
					c0.12-0.35,0.31-0.67,0.55-0.95c0.24-0.28,0.54-0.51,0.87-0.67c0.37-0.18,0.78-0.27,1.2-0.26c0.39-0.01,0.78,0.07,1.14,0.23
					c0.31,0.15,0.59,0.37,0.81,0.64c0.23,0.28,0.4,0.61,0.5,0.95c0.12,0.38,0.17,0.77,0.17,1.16L56.96,71.12z"/>
				<path class="st0" d="M78.45,67.35c-0.45-0.54-1.02-0.95-1.67-1.2c-0.7-0.28-1.57-0.43-2.61-0.43c-1.01-0.01-2.02,0.07-3.02,0.22
					c-0.75,0.11-1.49,0.27-2.22,0.46v12.37h2.86V68.47c0.2-0.03,0.5-0.07,0.91-0.12c0.39-0.05,0.79-0.07,1.18-0.07
					c0.44-0.01,0.88,0.06,1.3,0.21c0.34,0.13,0.63,0.36,0.84,0.66c0.23,0.36,0.38,0.75,0.44,1.17c0.1,0.58,0.14,1.16,0.13,1.75v6.73
					h2.99v-7.19c0.01-0.8-0.08-1.6-0.26-2.38C79.17,68.53,78.87,67.9,78.45,67.35z"/>
				<path class="st0" d="M89.95,76.28c-0.47,0.12-0.96,0.17-1.44,0.16c-0.79,0-1.35-0.22-1.68-0.65c-0.33-0.43-0.5-1.17-0.49-2.21
					v-5.2h4.55v-2.47h-4.55v-3.87l-2.99,0.49v11.07c-0.01,0.76,0.07,1.52,0.22,2.26c0.13,0.61,0.39,1.19,0.77,1.69
					c0.38,0.48,0.89,0.85,1.47,1.06c0.62,0.24,1.39,0.37,2.31,0.37c0.67,0.01,1.33-0.07,1.98-0.23c0.46-0.12,0.91-0.27,1.36-0.45
					l-0.49-2.35C90.62,76.09,90.29,76.19,89.95,76.28z"/>
				<path class="st0" d="M101.53,76.26c-0.29,0.06-0.59,0.1-0.88,0.12c-0.39,0.03-0.77,0.05-1.13,0.05c-0.99,0-1.68-0.29-2.08-0.88
					c-0.4-0.59-0.6-1.56-0.59-2.93v-6.69h-2.99v7.16c-0.01,0.8,0.08,1.6,0.27,2.38c0.16,0.68,0.46,1.32,0.89,1.87
					c0.44,0.54,1.02,0.96,1.66,1.22c0.69,0.29,1.55,0.44,2.58,0.44c1.01,0.01,2.02-0.07,3.01-0.23c0.91-0.16,1.66-0.31,2.23-0.45
					V65.93h-2.99L101.53,76.26z"/>
				<path class="st0" d="M115.96,66.01c-0.25-0.06-0.5-0.11-0.77-0.15c-0.26-0.04-0.53-0.07-0.79-0.1
					c-0.26-0.02-0.49-0.04-0.69-0.04c-0.97-0.01-1.93,0.09-2.87,0.28c-0.73,0.15-1.46,0.35-2.16,0.6v12.18h2.99V68.54
					c0.6-0.16,1.21-0.25,1.83-0.27c0.51-0.01,1.02,0.04,1.52,0.13c0.35,0.07,0.69,0.15,1.02,0.26l0.52-2.49
					C116.4,66.12,116.21,66.07,115.96,66.01z"/>
			</g>
			<path class="st0" d="M82.04,27.94C82.3,12.63,70.67,0.43,55.86,0.08c-15.77-0.38-28.82,11.4-29.3,26.75
				C26.23,37.3,30.5,45.58,39.14,51.09c9.11,5.81,18.88,6.31,28.14,0.92c7.06-4.11,13.95-6.31,22.02-3.83
				C83.6,42.49,81.91,35.69,82.04,27.94z M34.01,27.92c0-11.51,9.33-20.83,20.84-20.83c5.49,0,10.75,2.17,14.65,6.02
				C59.05,8.29,46.67,12.85,41.85,23.3c-3.68,7.96-1.97,17.38,4.27,23.55C38.74,43.44,34.01,36.05,34.01,27.92L34.01,27.92z
				 M47.43,32.65c0-8.64,7-15.65,15.65-15.65c4.13,0,8.1,1.64,11.03,4.55c-7.83-3.64-17.14-0.24-20.78,7.59
				c-2.78,5.98-1.51,13.05,3.16,17.69C50.97,44.28,47.43,38.74,47.43,32.65L47.43,32.65z M69.5,41.03c-1.57,0-2.85-1.27-2.85-2.84
				c0-1.57,1.27-2.85,2.84-2.85c1.57,0,2.85,1.27,2.85,2.84c0,0,0,0,0,0C72.34,39.75,71.07,41.03,69.5,41.03
				C69.5,41.03,69.5,41.03,69.5,41.03z M70.89,28.91c-5.44,0-9.85,4.41-9.84,9.85c0,2.62,1.04,5.13,2.9,6.98
				c-4.93-2.29-7.07-8.14-4.78-13.07c2.29-4.93,8.14-7.07,13.07-4.78c1.04,0.48,1.98,1.14,2.8,1.95
				C73.73,29.22,72.32,28.91,70.89,28.91z"/>
		</g>
	</g>
</g>
</svg>
